HIERARCHY
ROOT Hips
{
	OFFSET 0.00000 0.00000 0.00000
	CHANNELS 6 Xposition Yposition Zposition Yrotation Zrotation Xrotation 
	JOINT Lumbar
	{
		OFFSET 0 0 0
		CHANNELS 3 Zrotation Xrotation Yrotation
		JOINT Neck
		{
			OFFSET 0.00 0.2701 0.00
			CHANNELS 3 Zrotation Xrotation Yrotation
			End Site
			{
				OFFSET 0.00 0.1379 0.00
			}
		}
		JOINT RightShoulder
		{
			OFFSET 0.0119 0.2289 0.1181
			CHANNELS 3 Zrotation Xrotation Yrotation
			JOINT RightElbow
			{
				OFFSET 0.00 -0.1475 0.00
				CHANNELS 2 Zrotation Yrotation
				JOINT RightWrist
				{
					OFFSET 0.00 -0.1605 0.00
					CHANNELS 2 Zrotation Xrotation
					End Site
					{
						OFFSET 0.0040 -0.1068 0.0006
					}
				}
			}
		}
		JOINT LeftShoulder
		{
			OFFSET 0.0119 0.2289 -0.1181
			CHANNELS 3 Zrotation Xrotation Yrotation
			JOINT LeftElbow
			{
				OFFSET 0.00 -0.1475 0.00
				CHANNELS 2 Zrotation Yrotation
				JOINT LeftWrist
				{
					OFFSET 0.00 -0.1605 0.00
					CHANNELS 2 Zrotation Xrotation
					End Site
					{
						OFFSET 0.0040 -0.1068 -0.0006
					}
				}
			}
		}
	}
	JOINT RightHip
	{
		OFFSET 0.0316 -0.0424 0.0458
		CHANNELS 3 Zrotation Xrotation Yrotation
		JOINT RightKnee
		{
			OFFSET 0.00 -0.2438 0.00
			CHANNELS 1 Zrotation
			JOINT RightAnkle
			{
				OFFSET 0.00 -0.2449 0.00
				CHANNELS 3 Zrotation Xrotation Yrotation
				End Site
				{
					OFFSET 0.1237 -0.0542 0.0051
				}
			}
		}
	}
	JOINT LeftHip
	{
		OFFSET 0.0316 -0.0424 -0.0458
		CHANNELS 3 Zrotation Xrotation Yrotation
		JOINT LeftKnee
		{
			OFFSET 0.00 -0.2438 0.00
			CHANNELS 1 Zrotation
			JOINT LeftAnkle
			{
				OFFSET 0.00 -0.2449 0.00
				CHANNELS 3 Zrotation Xrotation Yrotation
				End Site
				{
					OFFSET 0.1237 -0.0542 -0.0051
				}
			}
		}
	}
}
MOTION
Frames: 19
Frame Time: 0.02
0.0337 0.00254 -0.13463 16.97887 -32.37657 1.2866 47.57083 -2.26843 5.11444 -3.7657 -3.27186 -2.11994 166.3869 -109.53262 -87.14682 134.29175 84.88621 -75.22919 -21.88572 21.01686 63.17473 -52.54407 121.63131 -99.88264 30.03162 0.71973 59.59107 -12.86276 -13.20676 -37.61522 -8.17387 -3.38396 -3.95265 51.50426 2.07599 13.52854 -27.67265 -6.85317 2.69876 3.56483
0.0347 0.00348 -0.13024 16.47932 -32.44254 0.77313 47.15955 -1.98063 5.64454 -2.48004 -3.07327 -2.11994 166.38714 -113.18228 -87.1472 134.30543 85.70136 -75.22941 -21.88577 25.70867 60.17531 -52.73718 119.92322 -101.991 31.13119 0.44335 58.86784 -11.78426 -13.34878 -36.27534 -8.02606 -3.28305 -3.89619 51.81573 2.75446 12.02636 -27.83758 -7.04714 2.80303 3.62352
0.03568 0.00441 -0.12567 15.97248 -32.51686 0.25496 46.70226 -1.68509 6.20173 -0.9723 -2.84808 -2.11994 166.38647 -117.91637 -87.14613 134.30036 85.95685 -75.22878 -21.8854 30.01587 56.27097 -52.93101 117.4574 -102.63173 31.66959 0.42317 58.17223 -10.63078 -13.40718 -34.88282 -7.90539 -3.18584 -3.84378 52.15145 3.43755 10.36116 -28.00333 -7.26609 2.90678 3.68288
0.03667 0.00534 -0.1212 15.47743 -32.58256 -0.24929 46.27132 -1.39892 6.73387 0.40952 -2.64002 -2.11994 166.38744 -122.17442 -87.14767 134.30114 86.39165 -75.22965 -21.88548 34.42273 52.7611 -53.07899 115.25185 -103.89632 32.39186 0.28487 57.46831 -9.52784 -13.50819 -33.53139 -7.77488 -3.0874 -3.78986 52.46476 4.11354 8.81047 -28.16215 -7.47019 3.00816 3.74056
0.03766 0.00632 -0.11665 14.94581 -32.66785 -0.80483 45.81469 -1.0877 7.32123 1.9014 -2.40986 -2.11994 166.38724 -126.3922 -87.14735 134.30238 87.1626 -75.22944 -21.88527 39.15988 49.28974 -53.39968 113.40172 -105.38695 33.43695 0.14654 56.74402 -8.34986 -13.58691 -32.10081 -7.63591 -2.98658 -3.73445 52.82596 4.81287 7.08463 -28.34818 -7.68965 3.12084 3.80424
0.03865 0.00719 -0.11224 14.48873 -32.71478 -1.25395 45.40193 -0.82701 7.79971 3.21513 -2.21991 -2.11994 166.38421 -130.92189 -87.14258 134.29741 87.10524 -75.2267 -21.8846 43.12242 45.54263 -53.37601 110.62112 -106.04161 33.67011 0.07235 56.07016 -7.31177 -13.69119 -30.82507 -7.52039 -2.89225 -3.68338 53.09413 5.4637 5.68641 -28.47921 -7.88287 3.20978 3.85551
0.03964 0.00775 -0.1083 14.24188 -32.65144 -1.40935 45.11869 -0.70687 7.96745 3.98058 -2.14538 -2.11994 166.39327 -136.2242 -87.15688 134.30968 84.7454 -75.2349 -21.88655 44.91702 41.17444 -52.30533 105.58495 -104.74317 31.77021 0.10708 55.52285 -6.68759 -13.91339 -29.99163 -7.46077 -2.80915 -3.64038 53.0888 5.98091 5.23544 -28.44326 -7.99702 3.2329 3.87213
0.04063 0.00819 -0.10453 14.06995 -32.54961 -1.45713 44.88212 -0.63791 8.02498 4.55836 -2.11271 -2.11994 166.37952 -141.73882 -87.13512 134.29151 81.59454 -75.2225 -21.88425 45.96336 36.58205 -50.90712 99.62005 -102.64942 29.07533 0.19961 55.02676 -6.2062 -14.16056 -29.31692 -7.42386 -2.73343 -3.60208 52.99122 6.44855 5.11991 -28.35535 -8.08394 3.2322 3.87626
0.04162 0.00868 -0.10068 13.86211 -32.46713 -1.553 44.62634 -0.54626 8.13511 5.22327 -2.06235 -2.11994 166.38404 -147.07666 -87.14238 134.29754 78.9013 -75.22666 -21.88537 47.43137 32.14458 -49.7238 93.99279 -100.91472 26.75811 0.27012 54.51139 -5.65392 -14.37864 -28.56868 -7.37774 -2.65826 -3.56357 52.94231 6.93765 4.84984 -28.29988 -8.18351 3.24258 3.8862
0.04264 0.00921 -0.09682 13.66183 -32.37753 -1.65216 44.36027 -0.45245 8.23601 5.89004 -2.0054 -2.11994 166.42213 -152.91353 -87.20238 134.34761 75.77638 -75.26104 -21.89294 48.5479 27.43703 -48.26307 88.67924 -99.13574 24.3484 0.33108 53.98 -5.12317 -14.66603 -27.82244 -7.32814 -2.56717 -3.51725 52.86434 7.43157 4.58317 -28.20399 -8.28264 3.25178 3.89555
0.04358 0.00961 -0.09304 13.46371 -32.29296 -1.71929 44.1276 -0.37477 8.32912 6.50322 -1.9725 -2.11994 166.3009 -157.59424 -87.0109 134.18772 73.36798 -75.15153 -21.87008 50.2161 23.26841 -47.30043 82.5218 -97.28401 21.95508 0.42287 53.4939 -4.58383 -14.81931 -27.11286 -7.29056 -2.51042 -3.48803 52.82646 7.90347 4.3908 -28.18392 -8.37607 3.25788 3.9032
0.04431 0.00966 -0.08943 13.25331 -32.23669 -1.72028 43.97427 -0.3346 8.43154 7.03114 -1.99558 -2.11994 166.49402 -160.38693 -87.31652 134.44323 73.15029 -75.32624 -21.90675 53.65583 20.49968 -47.80982 74.09591 -95.39238 19.75749 0.57993 53.11958 -3.97519 -14.56911 -26.44582 -7.28246 -2.55108 -3.50701 52.90664 8.32755 4.32716 -28.35144 -8.45898 3.26061 3.90874
0.04496 0.00956 -0.08591 13.04255 -32.18601 -1.69343 43.85392 -0.30794 8.529 7.50679 -2.04149 -2.11994 166.40887 -161.78792 -87.18039 134.32857 73.68048 -75.24864 -21.8903 57.66531 18.31427 -48.82799 64.89045 -93.4711 17.61485 0.76557 52.78923 -3.35552 -14.18859 -25.8143 -7.28521 -2.62523 -3.54263 53.0332 8.7308 4.32706 -28.60314 -8.53732 3.26125 3.91311
0.04565 0.00952 -0.08237 12.83187 -32.12922 -1.68197 43.71913 -0.27147 8.62614 7.99493 -2.07736 -2.11994 165.9333 -162.88276 -86.43161 133.70489 73.8585 -74.81989 -21.79969 61.37438 15.95795 -49.60337 56.15053 -91.58942 15.47868 0.94087 52.43893 -2.74806 -13.88586 -25.17971 -7.28164 -2.68115 -3.56922 53.1482 9.14328 4.29433 -28.83934 -8.61846 3.26321 3.91827
0.04634 0.00953 -0.07875 12.624 -32.08542 -1.65532 43.5818 -0.25212 8.73056 8.52647 -2.11371 -2.11994 167.55247 -167.79254 -88.98861 135.83934 74.05946 -76.28261 -22.10766 65.23626 13.18797 -50.41923 46.89605 -89.55815 13.18154 1.10815 52.08969 -2.11449 -13.50541 -24.49499 -7.28468 -2.74996 -3.60213 53.21928 9.55591 4.28676 -28.97903 -8.69525 3.2625 3.92175
0.04702 0.00939 -0.07533 12.40942 -32.01733 -1.65495 43.45927 -0.19988 8.81977 8.95479 -2.15337 -2.11994 164.85154 -164.61848 -84.71507 132.26696 74.40186 -73.83935 -21.59333 68.91992 11.43069 -51.27203 38.55538 -87.85528 11.24334 1.29693 51.74878 -1.53165 -13.25575 -23.92161 -7.27631 -2.79989 -3.6258 53.39474 9.96284 4.24037 -29.33867 -8.78084 3.2675 3.92881
0.04768 0.00883 -0.0724 12.17415 -31.87256 -1.73618 43.3498 -0.05108 8.87138 9.13452 -2.20069 -2.11994 149.34827 -137.76715 -60.30854 111.94158 74.94722 -59.86369 -18.64204 72.02 12.24965 -52.13508 32.80838 -86.95955 10.28745 1.5451 51.41295 -1.08383 -13.39804 -23.64132 -7.23291 -2.78873 -3.61965 53.84137 10.36895 4.04613 -30.2999 -8.88795 3.28594 3.94448
0.04835 0.00811 -0.06968 11.93203 -31.70472 -1.84517 43.2576 0.13127 8.90786 9.20803 -2.24922 -2.11994 129.67853 -103.13665 -29.29499 86.0849 75.61465 -42.11308 -14.89608 74.91643 14.08343 -53.0119 28.03631 -86.42005 9.69495 1.81039 51.08472 -0.68792 -13.67674 -23.47188 -7.17767 -2.7576 -3.60369 54.39273 10.76873 3.81403 -31.47667 -9.00503 3.31084 3.96415
0.04904 0.00747 -0.06689 11.69439 -31.55321 -1.94024 43.17013 0.29667 8.94963 9.31644 -2.29477 -2.11994 112.539 -73.1874 -2.21868 63.47687 76.23249 -26.62577 -11.63467 77.87783 15.50454 -53.86437 22.90023 -85.79103 8.93601 2.06532 50.75792 -0.27294 -13.89327 -23.25492 -7.12836 -2.73599 -3.5923 54.90064 11.16484 3.61361 -32.54582 -9.1201 3.33477 3.98307
